HIERARCHY
ROOT Hips
{
	OFFSET	0	0	0
	CHANNELS 6  Xposition Yposition Zposition Xrotation Yrotation Zrotation
	JOINT Spine
	{
		OFFSET	0	7.09727	1.42491
		CHANNELS 3  Xrotation Yrotation Zrotation
		JOINT Spine1
		{
			OFFSET	0	12.1515	-2.16991
			CHANNELS 3  Xrotation Yrotation Zrotation
			JOINT Spine2
			{
				OFFSET	0	9.21125	0.987307
				CHANNELS 3  Xrotation Yrotation Zrotation
				JOINT Spine3
				{
					OFFSET	0	11.0231	3.27656
					CHANNELS 3  Xrotation Yrotation Zrotation
					JOINT Spine4
					{
						OFFSET	0	16.3177	-1.67083
						CHANNELS 3  Xrotation Yrotation Zrotation
						JOINT Neck
						{
							OFFSET	0	7.78996	-5.45731
							CHANNELS 3  Xrotation Yrotation Zrotation
							JOINT Head
							{
								OFFSET	0	9.35229	-2.79918
								CHANNELS 3  Xrotation Yrotation Zrotation
								End Site
								{
									OFFSET	0	19.5075	-0.943909
								}
							}
						}
					}
					JOINT LeftShoulder
					{
						OFFSET	-4.687	19.8329	-9.3523
						CHANNELS 3  Xrotation Yrotation Zrotation
						JOINT LeftArm
						{
							OFFSET	-10.2164	-2.79918	3.59122
							CHANNELS 3  Xrotation Yrotation Zrotation
							JOINT LeftForeArm
							{
								OFFSET	-30.9138	-1.41096	2.20659
								CHANNELS 3  Xrotation Yrotation Zrotation
								JOINT LeftHand
								{
									OFFSET	-25.9068	-1.7903	1.8492
									CHANNELS 3  Xrotation Yrotation Zrotation
									End Site
									{
										OFFSET	-9.45469	-0.653372	0.674821
									}
								}
							}
						}
					}
					JOINT RightShoulder
					{
						OFFSET	4.687	19.8329	-9.3523
						CHANNELS 3  Xrotation Yrotation Zrotation
						JOINT RightArm
						{
							OFFSET	10.2164	-2.79918	3.59122
							CHANNELS 3  Xrotation Yrotation Zrotation
							JOINT RightForeArm
							{
								OFFSET	30.9138	-1.41096	2.20659
								CHANNELS 3  Xrotation Yrotation Zrotation
								JOINT RightHand
								{
									OFFSET	25.9068	-1.7903	1.8492
									CHANNELS 3  Xrotation Yrotation Zrotation
									End Site
									{
										OFFSET	9.45469	-0.653372	0.674821
									}
								}
							}
						}
					}
				}
			}
		}
	}
	JOINT LeftUpLeg
	{
		OFFSET	-9.67573	-3.54864	-0.712453
		CHANNELS 3  Xrotation Yrotation Zrotation
		JOINT LeftLeg
		{
			OFFSET	-2.14499	-42.0303	-0.657025
			CHANNELS 3  Xrotation Yrotation Zrotation
			JOINT LeftFoot
			{
				OFFSET	-2.09953	-38.701	3.32829
				CHANNELS 3  Xrotation Yrotation Zrotation
				JOINT LeftToeBase
				{
					OFFSET	0	-4.7778	-12.6898
					CHANNELS 3  Xrotation Yrotation Zrotation
					End Site
					{
						OFFSET	0	-1.91111	-7.64447
					}
				}
			}
		}
	}
	JOINT RightUpLeg
	{
		OFFSET	9.67573	-3.54864	-0.712453
		CHANNELS 3  Xrotation Yrotation Zrotation
		JOINT RightLeg
		{
			OFFSET	2.14499	-42.0303	-0.657025
			CHANNELS 3  Xrotation Yrotation Zrotation
			JOINT RightFoot
			{
				OFFSET	2.09953	-38.701	3.32829
				CHANNELS 3  Xrotation Yrotation Zrotation
				JOINT RightToeBase
				{
					OFFSET	0	-4.7778	-12.6898
					CHANNELS 3  Xrotation Yrotation Zrotation
					End Site
					{
						OFFSET	0	-1.91111	-7.64447
					}
				}
			}
		}
	}
}
MOTION
Frames: 13
Frame Time: 0.020408
 94.1283 48.4695 75.9337 73.5835 -168.005 172.741 0.0016837 -0.0354876 2.71634 13.6713 -0.0708333 4.52724 14.5514 -0.2125 4.52727 11.7188 -0.0354876 2.71634 178.473 -179.976 -179.095 162.203 170.317 -165.045 174.701 168.865 -174.751 174.425 161.771 171.456 111.781 -66.1271 67.5707 124.497 -49.9467 130.176 -0 16.4234 -8.39157 171.75 -169.672 -165.53 85.8891 72.6719 -51.2946 169.121 72.94 -167.887 -0 -18.3434 -10.7378 41.1086 26.7047 0.803232 103.093 163.491 -179.842 157.388 -179.954 -173.016 139.881 180 -180 50.1725 19.2549 -1.34161 96.802 172.846 179.899 156.521 179.939 171.471 140.034 180 -180
 94.1951 48.3816 76.1016 73.445 -168.69 173.292 0.000738753 -0.016018 2.64062 13.7008 -0.0319755 4.40103 14.5698 -0.0959265 4.40104 11.7251 -0.016018 2.64062 178.518 -179.977 -179.12 162.329 170.33 -165.51 174.727 168.715 -174.854 173.76 159.575 170.798 116.419 -65.1841 71.1143 124.587 -49.9416 130.193 -0 16.0714 -8.65775 171.488 -170.163 -164.952 82.9508 72.7245 -49.125 167.895 73.9476 -166.469 -0 -18.6905 -11.3825 42.2089 27.1467 -0.413342 103.725 164.737 179.994 157.664 179.989 -172.029 139.878 180 -180 47.7799 19.0471 -0.534328 95.049 175.735 179.978 156.336 -179.976 172.173 140.052 180 -180
 94.4561 48.2966 76.2453 73.3018 -169.816 174.266 0.00067305 -0.015248 2.5274 13.7329 -0.0304433 4.21234 14.5999 -0.0913298 4.21235 11.7419 -0.015248 2.5274 178.54 -179.979 -179.158 162.409 170.363 -166.257 174.73 168.424 -175.01 172.705 156.583 169.839 119.447 -65.2297 73.6833 125.307 -49.4734 130.735 -0 15.6609 -8.72647 171.287 -170.906 -164.428 81.5591 73.0801 -48.5616 166.598 74.7184 -165.123 -0 -19.146 -12.0199 44.4023 26.1196 -1.62955 103.481 166.182 179.789 156.955 179.965 -170.995 139.882 180 -180 45.7919 19.2179 -0.953775 93.1199 178.063 -179.874 156.357 -179.973 172.483 140.079 180 -180
 94.683 48.1317 76.2989 72.9513 -171.616 175.586 0.000475139 -0.0117056 2.3244 13.7857 -0.023377 3.874 14.6074 -0.0701309 3.874 11.6455 -0.0117056 2.3244 178.865 -179.985 -179.225 163.382 170.476 -168.117 174.99 168.114 -175.47 172.05 156.46 168.923 119.492 -65.1207 73.625 125.558 -49.3863 130.727 -0 15.1759 -8.78831 172.015 -172.954 -165.417 85.0362 72.3347 -51.8472 166.005 76.2772 -164.833 -0 -20.0129 -12.2445 46.6152 24.1215 -2.1849 106.333 167.988 179.864 157.571 179.995 -170.009 139.885 180 -180 43.8536 19.1631 -1.83569 89.6996 179.363 179.9 156.65 179.981 172.243 140.084 180 -180
 95.2219 48.5247 76.2274 72.3385 -173.503 177.322 0.000407178 -0.0115357 2.02154 13.8283 -0.0230459 3.36923 14.6066 -0.0691376 3.36924 11.5452 -0.0115357 2.02154 179.18 -179.99 -179.326 164.332 170.411 -169.84 175.239 167.426 -175.853 171.094 156.162 167.613 118.999 -65.446 73.1197 125.623 -49.4153 130.856 -0 14.7019 -8.8412 172.555 -175.699 -166.01 90.4608 72.0045 -57.5209 164.531 79.0083 -163.291 -0 -21.3059 -12.3468 49.336 21.2805 -3.1682 110.556 169.791 179.918 157.463 -179.983 -169.196 139.886 180 -180 42.5889 18.5188 -3.58623 88.2683 -179.513 179.803 156.713 -179.978 171.794 140.091 180 -180
 95.634 48.2004 76.1404 71.9706 -175.207 178.765 4.93283e-05 -0.00162464 1.73911 13.8559 -0.00324663 2.89852 14.6322 -0.00973988 2.89852 11.5651 -0.00162464 1.73911 179.187 -179.992 -179.42 164.426 170.796 -171.922 175.226 166.992 -176.34 170.304 156.103 166.473 117.304 -65.5031 70.8707 124.074 -50.6071 129.125 -0 14.3584 -9.02063 173.236 -177.879 -167.04 97.9261 71.5567 -64.4703 162.21 81.4063 -160.984 -0 -22.8265 -12.5127 50.8844 18.9322 -3.4065 113.593 171.188 -179.893 157.375 -179.975 -168.559 139.888 180 -180 40.5466 17.7779 -4.78673 86.6029 -178.384 179.878 156.841 -179.983 171.454 140.098 180 -180
 95.9871 48.4451 76.1171 71.8755 -176.555 -179.859 0.000199068 -0.00795899 1.43276 13.7922 -0.0159091 2.38794 14.6252 -0.0477274 2.38794 11.6895 -0.00795899 1.43276 178.776 -179.99 -179.523 163.359 171.147 -172.989 174.877 166.725 -176.549 169.772 155.941 165.736 115.057 -65.4421 67.717 123.063 -51.3905 127.83 -0 13.8417 -9.1638 173.703 -179.18 -167.808 104.214 71.1047 -72.0285 160.427 82.6667 -158.973 -0 -24.6046 -12.7621 51.8053 17.0223 -3.78209 116.642 172.438 -179.825 157.23 -179.97 -168.52 139.893 180 -180 39.8534 17.001 -5.46283 84.6788 -177.319 179.915 156.867 -179.951 171.059 140.089 180 -180
 96.3503 48.636 76.1492 71.5532 -177.428 -178.789 0.000113725 -0.00549732 1.18512 13.7248 -0.0109905 1.97521 14.6013 -0.0329714 1.97521 11.7771 -0.00549732 1.18512 178.444 -179.989 -179.605 162.502 171.316 -173.702 174.597 166.432 -176.666 169.524 155.925 165.373 113.662 -64.7558 66.1274 123.284 -51.431 127.941 -0 13.278 -9.34572 173.888 -179.795 -168.106 108.613 70.9237 -78.2131 159.486 83.0048 -157.754 -0 -26.146 -13.1258 52.4629 15.5924 -3.88574 119.165 173.233 -179.9 156.998 -179.982 -168.638 139.903 180 -180 39.9099 16.4763 -6.5964 82.9653 -177.122 -179.928 156.868 179.985 170.52 140.074 180 -180
 96.6858 48.6592 76.2343 71.5569 -177.91 -178.068 180 179.996 -179.012 13.6541 0.00879454 1.64727 14.5365 0.0263836 1.64727 11.7516 0.00439843 0.988362 178.371 -179.991 -179.671 162.364 171.177 -173.715 174.546 166.12 -176.624 168.869 156.01 164.362 114.01 -65.0388 67.0687 124.47 -50.7942 129.397 -0 12.7946 -9.30378 173.956 -179.478 -168.275 110.084 70.9284 -81.5728 158.631 82.8121 -156.805 -0 -27.3764 -13.4605 51.5835 13.8733 -3.64662 120.171 173.573 179.877 156.504 -179.98 -168.991 139.919 180 -180 40.6065 16.0676 -7.28679 80.4472 -177.982 -179.89 157.098 179.999 169.602 140.034 180 -180
 96.7289 48.5834 76.1231 71.6145 -178.181 -177.606 180 179.989 -179.152 13.5965 0.0210231 1.41376 14.4881 0.0630693 1.41376 11.7425 0.0105136 0.848258 178.284 -179.992 -179.717 162.157 170.858 -173.102 174.478 165.752 -176.411 168.776 156.19 164.158 114.852 -66.5558 68.6851 126.69 -49.2052 132.492 -0 12.2742 -8.96564 174.162 -178.685 -168.768 110.215 70.5718 -82.705 158.981 82.1817 -157.333 -0 -28.3949 -13.6116 51.0514 12.6501 -3.40511 119.274 173.16 -179.972 156.465 179.983 -169.538 139.926 180 -180 40.9361 15.8947 -7.68067 80.0487 -179.868 -179.854 157.259 -179.975 168.52 139.973 180 -180
 96.7098 48.5724 75.7893 71.5979 -178.406 -177.164 7.46918e-05 -0.00614007 0.696949 13.5497 -0.0122785 1.16158 14.4612 -0.0368356 1.16158 11.7661 -0.00614007 0.696949 178.139 -179.992 -179.768 161.779 170.543 -172.522 174.353 165.312 -176.189 168.926 156.218 164.375 113.834 -66.5554 67.5989 127.682 -48.5547 133.817 -0 11.8604 -8.82302 174.28 -178.105 -169.061 111.911 70.2487 -85.0915 159.38 81.6113 -157.858 -0 -29.2572 -13.5184 50.6692 11.9454 -3.4571 117.654 172.098 -179.794 157.418 -179.945 -170.334 139.926 180 -180 40.7849 15.333 -7.43492 81.2563 177.652 179.966 156.987 -179.932 168.538 139.883 180 -180
 96.6995 48.3609 75.6906 71.3481 -178.656 -176.983 180 179.991 -179.399 13.531 0.0187795 1.00192 14.4469 0.0563386 1.00192 11.7703 0.00939068 0.601155 178.095 -179.993 -179.8 161.657 170.2 -171.915 174.309 164.904 -175.974 169.231 156.887 164.615 112.45 -65.607 67.0544 127.823 -48.6292 133.98 -0 11.4065 -8.79317 174.059 -176.897 -168.764 113.066 70.3394 -86.2248 159.468 80.9925 -157.918 -0 -30.0083 -13.2229 49.6727 11.8415 -3.39219 113.996 170.512 179.997 156.293 179.966 -171.141 139.926 180 -180 40.7635 15.1866 -7.42128 83.0343 174.959 179.888 156.647 -179.88 168.531 139.881 180 -180
 96.7546 48.082 75.6075 71.0665 -178.354 -177.14 180 179.987 -179.393 13.5059 0.0253536 1.01242 14.4419 0.0760607 1.01242 11.815 0.012678 0.60745 177.943 -179.993 -179.798 161.207 169.803 -170.576 174.176 164.613 -175.576 169.449 158.031 164.581 112.803 -64.554 68.3905 127.814 -48.9051 133.881 -0 10.855 -8.85739 174.179 -174.704 -169.253 112.663 69.9669 -85.0504 160.701 79.7484 -159.341 -0 -30.6716 -12.8202 48.8847 11.9759 -3.46813 109.979 169.424 179.98 156.393 179.987 -171.76 139.927 180 -180 42.0626 15.1912 -7.27 85.3208 171.604 179.934 156.728 -179.876 168.544 139.887 180 -180
